<svg width="233" height="27" viewBox="0 0 233 27" fill="none" xmlns="http://www.w3.org/2000/svg">
<path fill-rule="evenodd" clip-rule="evenodd" d="M154.09 1.98411L154.696 1.94531L154.514 0.351562H159.363V8.94641L154.09 9.37244V1.98411ZM143.807 10.2032V2.64265L138.533 2.98035V10.6292L143.807 10.2032ZM119.549 12.1629V12.0762C119.572 9.42773 120.018 7.47656 120.885 6.22266C121.764 4.95703 123.082 4.32422 124.84 4.32422C126.457 4.32422 127.658 4.69922 128.443 5.44922C129.24 6.1875 129.703 7.38281 129.832 9.03516H135.105C134.877 6.71692 134.149 4.81849 132.919 3.33987L116.283 4.40526C115.997 4.84472 115.738 5.31575 115.506 5.81836C114.639 7.69336 114.205 9.86133 114.205 12.3223V12.5946L119.549 12.1629ZM114.216 14.6003L119.549 14.1694C119.565 16.8533 119.981 18.8216 120.797 20.0742C121.641 21.3516 122.965 21.9902 124.77 21.9902C126.398 21.9902 127.611 21.6211 128.408 20.8828C129.217 20.1328 129.68 18.9785 129.797 17.4199H135.07C134.871 20.1738 133.852 22.3418 132.012 23.9238C130.184 25.5059 127.77 26.2969 124.77 26.2969C121.488 26.2969 118.904 25.1953 117.018 22.9922C115.26 20.9158 114.326 18.1185 114.216 14.6003ZM110.127 12.9241V10.7227H100.002V5.44788L94.7285 5.78559V14.1681L110.127 12.9241ZM94.7285 16.1746L100.002 15.7486V21.709H111.885V25.9453H94.7285V16.1746ZM83.8652 15.0457V6.48127L78.5918 6.81898V15.4718L83.8652 15.0457ZM78.5918 17.4783L83.8652 17.0523V25.9453H78.5918V17.4783ZM65.4091 16.5368L64.7227 15.2402C66.2578 14.5488 67.4004 13.623 68.1504 12.4629C68.9121 11.291 69.293 9.83203 69.293 8.08594C69.293 7.85778 69.2859 7.63441 69.2718 7.41582L63.9703 7.75533C64.0031 7.99391 64.0195 8.24474 64.0195 8.50781C64.0195 9.69141 63.6562 10.623 62.9297 11.3027C62.2031 11.9707 61.1777 12.3047 59.8535 12.3047H55.5996V8.29139L50.3262 8.6291V17.7553L55.5996 17.3293V16.5762H59.8008L60.0042 16.9734L65.4091 16.5368ZM60.9911 18.9002L66.4278 18.461L70.2598 25.6992V25.9453H64.5996L60.9911 18.9002ZM55.5996 19.3358L50.3262 19.7618V25.9453H55.5996V19.3358ZM45.9674 18.1074C46.3186 16.7702 46.4941 15.3106 46.4941 13.7285V12.5859C46.4941 11.2751 46.3693 10.046 46.1196 8.89849L40.8374 9.23675C41.0461 10.2073 41.1504 11.3179 41.1504 12.5684V13.8164C41.142 15.7209 40.8933 17.3011 40.4044 18.5568L45.9674 18.1074ZM39.0633 20.6717L45.2422 20.1725C45.2147 20.2338 45.1867 20.2948 45.1582 20.3555C44.2676 22.2539 42.9902 23.7188 41.3262 24.75C39.6738 25.7812 37.7754 26.2969 35.6309 26.2969C33.5098 26.2969 31.6172 25.7871 29.9531 24.7676C28.679 23.987 27.6248 22.9522 26.7903 21.6632L32.8119 21.1767C33.5963 21.7074 34.5359 21.9727 35.6309 21.9727C37.0323 21.9727 38.1764 21.539 39.0633 20.6717ZM31.1766 19.3023C30.4196 17.906 30.041 16.0481 30.041 13.7285V12.4805C30.0451 11.5462 30.1078 10.6914 30.229 9.91611L24.838 10.2613C24.7442 11.0104 24.6973 11.7911 24.6973 12.6035V13.8691C24.7076 16.0453 25.0708 18.0015 25.7867 19.7378L31.1766 19.3023ZM16.2728 20.5064L19.7263 10.5887L14.2287 10.9408L11.6191 19.5996L9.12337 11.2677L3.90213 11.6021L7.24352 21.2358L16.2728 20.5064ZM7.92049 23.1877L8.87695 25.9453H14.3789L15.5539 22.571L7.92049 23.1877ZM138.533 12.6357L159.363 10.9529V22.7753L154.09 23.4761V14.9766H143.807V25.9453H138.533V12.6357ZM163.986 10.5794V22.1609L169.26 21.46V16.5762H173.461L175.535 20.626L180.86 19.9184L178.383 15.2402C179.918 14.5488 181.061 13.623 181.811 12.4629C182.427 11.5138 182.795 10.3763 182.912 9.05049L177.587 9.4807C177.436 10.2143 177.104 10.8216 176.59 11.3027C175.863 11.9707 174.838 12.3047 173.514 12.3047H169.26V10.1534L163.986 10.5794ZM177.583 7.47448C177.436 6.74527 177.123 6.1405 176.643 5.66016C175.963 4.96875 174.914 4.62305 173.496 4.62305H169.26V8.1469L163.986 8.57293V0.351562H173.496C176.52 0.351562 178.852 1.02539 180.492 2.37305C181.894 3.52418 182.696 5.08146 182.901 7.04487L177.583 7.47448ZM186.608 8.75189C186.339 9.94508 186.205 11.229 186.205 12.6035V13.8691C186.214 15.7811 186.496 17.5233 187.049 19.0958L192.273 18.4016C191.79 17.1382 191.549 15.5805 191.549 13.7285V12.4805C191.556 10.8463 191.742 9.45529 192.108 8.30757L186.608 8.75189ZM193.167 6.21547L187.239 6.69436C187.339 6.44441 187.445 6.19929 187.559 5.95898C188.473 4.03711 189.756 2.56641 191.408 1.54688C193.072 0.515625 194.971 0 197.104 0C199.236 0 201.129 0.515625 202.781 1.54688C204.207 2.42039 205.353 3.62509 206.22 5.16098L200.513 5.62205C199.624 4.78027 198.487 4.35938 197.104 4.35938C195.43 4.35938 194.117 4.97807 193.167 6.21547ZM201.807 7.52397C202.375 8.82491 202.658 10.5064 202.658 12.5684V13.8164C202.653 15.0302 202.55 16.1122 202.349 17.0624L207.828 16.3343C207.944 15.5061 208.002 14.6375 208.002 13.7285V12.5859C208.002 10.561 207.704 8.73098 207.108 7.09573L201.807 7.52397ZM211.834 6.71393V15.8019L217.107 15.1011V9.10547L220.488 14.6517L225.422 13.9961L220.555 6.00937L211.834 6.71393ZM227.391 5.45714V13.7344L232.646 13.0359V5.03254L227.391 5.45714ZM232.646 3.02602L227.391 3.45063V0.351562H232.646V3.02602ZM219.39 4.097L211.834 4.70742V0.351562H217.107L219.39 4.097ZM154.09 25.4937L159.363 24.7929V25.9453H154.09V25.4937ZM169.26 23.4776L163.986 24.1785V25.9453H169.26V23.4776ZM178.26 25.9453L176.503 22.515L181.857 21.8034L183.92 25.6992V25.9453H178.26ZM191.461 24.7676C189.975 23.8574 188.789 22.6016 187.901 21.0002L193.337 20.2777C194.274 21.4077 195.541 21.9727 197.139 21.9727C198.908 21.9727 200.268 21.2812 201.217 19.8984C201.37 19.6735 201.511 19.4322 201.639 19.1744L207.392 18.4098C207.197 19.0911 206.955 19.7396 206.666 20.3555C205.775 22.2539 204.498 23.7188 202.834 24.75C201.182 25.7812 199.283 26.2969 197.139 26.2969C195.018 26.2969 193.125 25.7871 191.461 24.7676ZM211.834 25.9453V17.8195L217.107 17.1187V25.9453H211.834ZM227.373 25.9453L221.626 16.5181L226.559 15.8625L227.391 17.2266V15.752L232.646 15.0535V25.9453H227.373ZM143.807 0.641017V0.351562H138.533V0.978726L143.807 0.641017ZM130.757 1.47673C129.142 0.492245 127.169 0 124.84 0C122.707 0 120.832 0.503906 119.215 1.51172C118.839 1.7451 118.483 2.00261 118.147 2.28424L130.757 1.47673ZM111.85 2.68753V0.351562H94.7285V3.78396L111.85 2.68753ZM91.7051 3.97758V0.351562H70.8574V4.62305H78.5918V4.81735L91.7051 3.97758ZM68.9112 5.43729C68.5196 4.21135 67.8265 3.18994 66.832 2.37305C65.1914 1.02539 62.8594 0.351562 59.8359 0.351562H50.3262V6.62747L55.5996 6.28976V4.62305H59.8359C61.2539 4.62305 62.3027 4.96875 62.9824 5.66016C63.0305 5.70821 63.0769 5.75751 63.1216 5.80805L68.9112 5.43729ZM45.5401 6.93396C45.4137 6.60075 45.2746 6.27576 45.123 5.95898C44.2207 4.03711 42.9375 2.56641 41.2734 1.54688C39.6211 0.515625 37.7285 0 35.5957 0C33.4629 0 31.5645 0.515625 29.9004 1.54688C28.248 2.56641 26.9648 4.03711 26.0508 5.95898C25.7126 6.67482 25.4378 7.43344 25.2264 8.23485L30.7482 7.88123C30.9539 7.33774 31.2045 6.8552 31.5 6.43359C32.4609 5.05078 33.8262 4.35938 35.5957 4.35938C37.377 4.35938 38.748 5.05664 39.709 6.45117C39.8839 6.70503 40.0429 6.98026 40.186 7.27684L45.5401 6.93396ZM20.4392 8.54142L23.291 0.351562H17.4199L14.8438 8.89974L20.4392 8.54142ZM8.53508 9.30375L5.85352 0.351562H0L3.22297 9.64394L8.53508 9.30375Z" fill="black"/>
</svg>
